<svg width="64" height="64" viewBox="0 0 64 64" fill="none" xmlns="http://www.w3.org/2000/svg">
<path d="M8.83197 31.488C8.83197 30.976 9.02397 30.5493 9.40797 30.1867C9.77064 29.824 10.2186 29.6533 10.7306 29.6533H15.1253C15.6373 29.6533 16.064 29.824 16.4053 30.1867C16.768 30.5493 16.9386 30.976 16.9386 31.488C16.9386 32.0213 16.768 32.4693 16.4053 32.832C16.0426 33.1947 15.616 33.3653 15.1253 33.3653H10.7306C10.1973 33.3653 9.7493 33.1947 9.38664 32.832C9.00264 32.4693 8.83197 32.0213 8.83197 31.488ZM15.0613 16.512C15.0613 16.0213 15.232 15.5733 15.5733 15.1893C16 14.848 16.448 14.656 16.9813 14.656C17.4293 14.656 17.856 14.8267 18.24 15.1893L21.3333 18.3467C21.696 18.688 21.8666 19.1147 21.8666 19.6267C21.8666 20.1387 21.696 20.5653 21.3333 20.9067C20.9706 21.2693 20.5653 21.44 20.0533 21.44C19.4986 21.44 19.072 21.2693 18.752 20.9067L15.552 17.8347C15.2533 17.472 15.0613 17.024 15.0613 16.512ZM20.6293 31.488C20.6293 29.9733 20.928 28.5227 21.5466 27.136C22.144 25.7493 22.976 24.5333 23.9786 23.5307C25.0026 22.528 26.2186 21.7173 27.6053 21.12C28.992 20.5227 30.464 20.2027 32 20.2027C34.048 20.2027 35.9253 20.7147 37.6746 21.7387C39.424 22.7627 40.8106 24.128 41.8133 25.8773C42.816 27.6053 43.328 29.4827 43.328 31.488C43.328 31.808 43.3066 32.1067 43.264 32.384C42.6666 32.0213 41.984 31.8507 41.1946 31.8507C40.6826 31.8507 40.1706 31.9573 39.6586 32.1707C39.68 32.0213 39.68 31.7867 39.68 31.488C39.68 29.3973 38.9333 27.6267 37.4186 26.1547C35.904 24.6827 34.0906 23.936 31.9786 23.936C29.8666 23.936 28.0746 24.6827 26.56 26.1547C25.0453 27.6267 24.32 29.3973 24.32 31.488V31.872C23.7013 31.9147 23.104 32.0853 22.528 32.4053C22.5066 32.4267 22.4426 32.4693 22.3146 32.5547C22.1866 32.64 22.0586 32.7467 21.9093 32.8533C21.76 32.96 21.6106 33.088 21.4186 33.2587C21.2266 33.4293 21.0346 33.6 20.864 33.7707C20.6933 33.088 20.6293 32.32 20.6293 31.488ZM20.6933 39.2747V38.9547C20.672 38.7627 20.6933 38.528 20.736 38.2507C20.8426 37.4827 21.1413 36.7573 21.632 36.0747C21.9093 35.7333 22.1013 35.4987 22.208 35.4133C22.2293 35.3707 22.2506 35.328 22.2933 35.2853L22.3786 35.2C22.4426 35.1787 22.528 35.0933 22.6346 34.9867C22.6773 34.944 22.7413 34.88 22.8053 34.816C22.8693 34.752 22.9333 34.7307 22.9546 34.688C23.0613 34.5813 23.168 34.5173 23.2533 34.4747L23.616 34.24C23.9146 34.048 24.2773 33.9413 24.6826 33.9413H24.7466C24.96 33.9413 25.152 33.9627 25.3013 34.0053C25.3653 34.0267 25.4506 34.0693 25.5786 34.1547V34.176C25.8773 34.304 26.1333 34.5173 26.304 34.7947C26.4746 35.072 26.5813 35.3707 26.5813 35.6907C26.5813 36.0533 26.4746 36.352 26.2826 36.5867C26.1546 36.7787 25.984 36.9493 25.8133 37.0773C25.7706 37.0987 25.728 37.12 25.6853 37.1413C25.6426 37.1627 25.6 37.184 25.6 37.184L25.472 37.2693C25.3866 37.3333 25.3226 37.3973 25.2586 37.44C25.1946 37.4827 25.1306 37.568 25.024 37.6747C24.9386 37.7813 24.8533 37.8667 24.7893 37.9733C24.7253 38.0587 24.6613 38.1867 24.5973 38.2933C24.5333 38.4213 24.4906 38.5493 24.4906 38.656V38.976C24.576 39.296 24.6613 39.552 24.7253 39.744C24.8746 40.0427 25.1093 40.3413 25.4506 40.6827C25.472 40.7253 25.6426 40.896 25.9626 41.216C27.7973 42.88 28.672 44.672 28.544 46.5493C28.5013 47.1893 28.352 47.808 28.096 48.4053C27.84 49.0027 27.5413 49.4933 27.1786 49.8987C26.8373 50.304 26.56 50.6027 26.3466 50.816C26.1333 51.008 25.9626 51.1573 25.8133 51.264C25.792 51.2853 25.7493 51.3067 25.6853 51.3493C25.6213 51.392 25.5573 51.4347 25.536 51.4347C25.3653 51.52 25.216 51.5627 25.0666 51.584C24.8746 51.6053 24.7466 51.6267 24.64 51.6267C24 51.6267 23.488 51.4133 23.1253 50.9867C22.8266 50.624 22.6986 50.1973 22.7413 49.728C22.784 49.2587 23.0186 48.8747 23.4453 48.5973L23.4666 48.5333C23.488 48.512 23.5306 48.4693 23.5733 48.448C23.616 48.4053 23.6586 48.3627 23.7226 48.32C23.7866 48.2773 23.8506 48.2133 23.8933 48.1493C23.9573 48.0853 24.0213 48 24.064 47.936C24.128 47.8507 24.192 47.7653 24.2346 47.68C24.2986 47.5947 24.3626 47.488 24.4053 47.3813C24.4693 47.2747 24.512 47.168 24.5546 47.0613C24.5973 46.9547 24.6186 46.848 24.6613 46.72C24.6826 46.592 24.704 46.464 24.704 46.3573C24.7466 45.9307 24.64 45.504 24.384 45.0773C24.2773 44.8427 24.128 44.608 23.9146 44.3733C23.7653 44.2027 23.6586 44.096 23.5946 44.032C23.4026 43.7973 23.296 43.6693 23.2746 43.648C23.232 43.6267 23.1893 43.584 23.1253 43.52C23.0613 43.456 23.0186 43.4347 22.9973 43.4133C22.6773 43.1147 22.4426 42.8587 22.272 42.6453C22.016 42.304 21.824 42.0907 21.76 41.9627C21.3546 41.408 21.0773 40.8533 20.928 40.2987C20.8426 40 20.7786 39.7653 20.7573 39.616C20.7573 39.5733 20.736 39.5093 20.7146 39.4453C20.6933 39.3813 20.6933 39.3387 20.6933 39.2747ZM28.9706 38.5707C28.9706 38.4427 28.9706 38.3573 28.992 38.272C29.0346 37.8027 29.184 37.3547 29.4186 36.9067C29.6533 36.4587 29.888 36.0747 30.1653 35.776C30.4426 35.4773 30.6986 35.2 30.976 34.9653C31.2533 34.7307 31.4666 34.56 31.6373 34.432L31.8933 34.2827C32.2133 34.0907 32.576 33.984 32.96 33.984C33.1946 33.984 33.408 34.0053 33.6 34.048C33.6213 34.048 33.6426 34.0693 33.7066 34.0907C33.7706 34.1333 33.8133 34.1547 33.8346 34.176C33.856 34.176 33.8773 34.176 33.8986 34.1973C33.92 34.1973 33.9626 34.24 34.048 34.304C34.4746 34.56 34.7306 34.944 34.8586 35.456C34.8586 35.4987 34.8586 35.5413 34.8586 35.6053C34.8586 35.648 34.8586 35.6907 34.8586 35.712C34.8586 35.776 34.8373 35.8613 34.816 35.968C34.7946 36.0747 34.7733 36.1387 34.7733 36.16C34.624 36.6507 34.3253 36.992 33.8773 37.2267C33.1733 37.696 32.7893 38.1867 32.7466 38.6987C32.7253 38.8693 32.7253 39.0187 32.7466 39.168C32.7893 39.424 32.9173 39.7013 33.1093 40C33.344 40.3413 33.5146 40.576 33.6213 40.6827C33.9626 41.024 34.1546 41.216 34.2186 41.2587C34.4746 41.4933 34.816 41.856 35.2213 42.3467C36.3733 43.7333 36.9066 45.1627 36.8 46.6133C36.7573 47.2533 36.608 47.872 36.352 48.4693C36.096 49.0667 35.7973 49.5573 35.4346 49.9627C35.0933 50.3467 34.7946 50.6667 34.5813 50.88C34.3466 51.0933 34.176 51.2427 34.048 51.328L33.792 51.4987C33.5573 51.584 33.4293 51.6267 33.344 51.648C33.1093 51.6693 32.96 51.6907 32.9173 51.6907H32.8533C32.6826 51.6907 32.5546 51.6693 32.448 51.648C32.4053 51.648 32.3413 51.648 32.2773 51.6267C32.2133 51.6053 32.1493 51.6053 32.128 51.6053C32.1066 51.6053 32.0853 51.6053 32.064 51.584C32.0426 51.5627 32.0213 51.5627 31.9786 51.5413C31.9573 51.52 31.936 51.52 31.9146 51.52C31.5946 51.2853 31.4026 51.1573 31.36 51.072C31.0186 50.688 30.8906 50.2613 30.9546 49.792C31.0186 49.3227 31.2533 48.96 31.68 48.6613L31.744 48.576C31.7866 48.5333 31.8506 48.4693 31.936 48.4053L32.192 48.1493L32.4693 47.808L32.7253 47.4027L32.9173 46.9333L33.0026 46.4213C33.024 45.568 32.5333 44.672 31.5306 43.712C31.1253 43.3493 30.8266 43.0507 30.592 42.7947C29.4186 41.3227 28.8853 39.936 28.9706 38.5707ZM30.1226 14.7627V10.3467C30.1226 9.83466 30.3146 9.38666 30.6773 9.02399C31.04 8.66133 31.488 8.49066 31.9786 8.49066C32.4906 8.49066 32.9386 8.66133 33.3013 9.02399C33.664 9.38666 33.8346 9.83466 33.8346 10.3467V14.7627C33.8346 15.2747 33.664 15.68 33.3013 16.0213C32.9386 16.3627 32.512 16.512 32 16.512C31.488 16.512 31.0613 16.3413 30.6986 16.0213C30.3146 15.68 30.1226 15.2747 30.1226 14.7627ZM37.2906 38.2507C37.3333 37.7813 37.4826 37.3333 37.7173 36.8853C37.952 36.4373 38.1866 36.0533 38.464 35.7547C38.7413 35.456 38.9973 35.1787 39.2746 34.944C39.5306 34.7093 39.744 34.5387 39.9146 34.4107L40.192 34.2613C40.2346 34.2187 40.32 34.176 40.4053 34.0907C40.64 34.0053 40.9173 33.9413 41.216 33.9413C41.9413 33.9413 42.4746 34.2187 42.8586 34.752C42.9653 34.9013 43.0293 35.0507 43.072 35.2427C43.0933 35.2853 43.1146 35.3493 43.1146 35.4133V35.648C43.1146 36.3093 42.7946 36.8213 42.1546 37.1413C41.472 37.5893 41.1093 38.08 41.0453 38.6133C40.96 39.3387 41.4506 40.192 42.496 41.1733C44.3733 42.816 45.2266 44.608 45.12 46.5067C45.0773 47.1467 44.928 47.7653 44.672 48.3627C44.416 48.96 44.096 49.4507 43.7546 49.856C43.392 50.2613 43.1146 50.56 42.9226 50.7733C42.7306 50.9867 42.5386 51.1147 42.3893 51.2213C42.048 51.4347 41.7493 51.5413 41.5146 51.5627C41.4506 51.584 41.344 51.584 41.1946 51.584C40.5546 51.584 40.064 51.3707 39.7226 50.944C39.4026 50.5813 39.2746 50.1547 39.3173 49.6853C39.36 49.216 39.5946 48.832 40 48.5547C40.064 48.5333 40.192 48.4267 40.384 48.256C40.576 48.0853 40.768 47.808 41.0026 47.4453C41.216 47.0613 41.344 46.6987 41.3653 46.3147C41.408 45.4613 40.896 44.5653 39.872 43.6053C38.9973 42.8373 38.3146 42.0053 37.8666 41.1307C37.3546 40.2347 37.1626 39.2533 37.2906 38.2507ZM42.176 19.648C42.176 19.1147 42.3466 18.688 42.6666 18.368L45.7813 15.2107C46.1653 14.848 46.592 14.6773 47.0826 14.6773C47.5946 14.6773 48.0213 14.8693 48.384 15.232C48.7466 15.5947 48.9386 16.0427 48.9386 16.5333C48.9386 17.0667 48.7466 17.5147 48.384 17.856L45.2266 20.928C44.8426 21.2907 44.416 21.4613 43.9253 21.4613C43.4346 21.4613 43.008 21.2907 42.688 20.928C42.3466 20.5867 42.176 20.1387 42.176 19.648ZM47.0826 31.488C47.0826 31.0187 47.2746 30.592 47.6373 30.1867C47.9786 29.824 48.384 29.6533 48.8746 29.6533H53.2693C53.7813 29.6533 54.2293 29.8453 54.592 30.208C54.9546 30.5707 55.168 30.9973 55.168 31.488C55.168 32 54.976 32.448 54.6133 32.8107C54.2293 33.1733 53.8026 33.3653 53.2693 33.3653H48.8746C48.3626 33.3653 47.9146 33.1947 47.5946 32.832C47.2533 32.4693 47.0826 32.0213 47.0826 31.488Z" fill="#24BB77"/>
</svg>
