<svg width="53" height="53" viewBox="0 0 53 53" fill="none" xmlns="http://www.w3.org/2000/svg">
<g clip-path="url(#clip0_11_2)">
<path d="M52.8952 34.2273C52.5625 32.2636 51.2965 23.9846 51.1728 19.3179C51.1929 17.3377 50.721 16.0519 49.7699 15.496C49.0428 15.0711 48.0978 15.1326 47.1773 15.665C46.5809 16.01 46.0934 16.5727 45.6877 17.3961C45.611 17.2736 45.5352 17.1526 45.4589 17.0317C45.1129 16.4826 44.766 15.9179 44.4306 15.372C43.6409 14.0863 42.8242 12.7568 41.9359 11.4946C41.8214 11.3319 41.7032 11.1628 41.5819 10.9896C40.4374 9.35389 39.1404 7.49991 38.1217 6.72674C37.0047 5.87842 35.8003 5.65491 34.8177 6.11409C34.3936 6.31218 34.0461 6.62369 33.8042 7.00482C33.7542 6.98106 33.7026 6.9584 33.6493 6.93699C32.5294 6.4861 31.2569 6.58404 30.4066 7.18661C29.689 7.69524 29.3163 8.51717 29.3555 9.50446C28.8936 9.74939 28.2747 10.195 27.8331 10.9587C27.2722 11.9283 27.1399 13.1294 27.4378 14.5346C27.0205 14.9363 26.7184 15.4177 26.4999 15.8936C26.2812 15.418 25.9791 14.9364 25.5615 14.5344C25.8593 13.1293 25.727 11.928 25.1661 10.9585C24.7243 10.1949 24.1055 9.74925 23.6435 9.50433C23.6836 8.51814 23.3108 7.69552 22.5927 7.18647C21.7427 6.5839 20.4699 6.48568 19.3497 6.93671C19.2965 6.95812 19.2451 6.98078 19.1951 7.00454C18.9533 6.62355 18.6056 6.3119 18.1816 6.11395C17.1992 5.65505 15.9947 5.87828 14.8777 6.7266C13.8591 7.49991 12.5619 9.35389 11.4176 10.9896C11.2964 11.1628 11.178 11.3321 11.0635 11.4946C10.1742 12.7585 9.35638 14.0898 8.56566 15.3771C8.23122 15.9214 7.88546 16.4843 7.54052 17.0317C7.46441 17.1526 7.38843 17.2736 7.3119 17.3961C6.90604 16.5727 6.41868 16.01 5.82192 15.665C4.90163 15.1329 3.95703 15.0711 3.22972 15.496C2.27862 16.0518 1.8066 17.3376 1.82676 19.3179C1.7034 23.9751 0.437072 32.2613 0.10443 34.2276C-0.0951822 35.4091 -0.0103641 36.5063 0.36372 37.5817C1.11106 39.7331 4.06823 44.2882 5.76445 46.812L7.04142 45.9537C4.26715 41.8258 2.31412 38.5074 1.81709 37.0766C1.53018 36.2516 1.46622 35.4036 1.62149 34.4841C1.95883 32.4934 3.24215 24.0889 3.36565 19.3439C3.36592 19.3344 3.36592 19.3247 3.36578 19.3152C3.34368 17.3645 3.85052 16.9157 4.00648 16.8245C4.35169 16.6228 4.89389 16.9053 5.05192 16.9968C5.57451 17.299 6.02499 18.069 6.39161 19.2838C7.52795 23.4354 7.78489 27.8655 7.49853 32.1437C9.87924 31.6652 12.1765 33.3611 13.7251 35.0047C12.4173 33.4239 10.2239 31.466 8.00191 31.6051C8.51096 27.6605 8.48292 23.5091 7.75409 19.5872C7.76956 19.5672 7.78545 19.5474 7.79898 19.5256L8.09474 19.0501C8.36108 18.6217 8.60089 18.236 8.84291 17.852C9.19254 17.2971 9.54066 16.7304 9.8773 16.1824C10.6557 14.9151 11.4607 13.6047 12.3225 12.38C12.4377 12.2162 12.5568 12.0461 12.6789 11.8716C13.651 10.4824 14.9821 8.57961 15.8089 7.9519C16.4558 7.46068 17.0835 7.29864 17.5312 7.50792C17.8266 7.64579 18.2465 8.1156 17.7816 10.201C16.7676 14.7494 14.0112 18.865 11.6162 22.8047C14.3769 19.0316 19.0719 13.799 19.4025 8.72273C19.4566 8.66623 19.6542 8.47311 19.9252 8.36398C20.552 8.11173 21.2833 8.14351 21.7036 8.44161C21.9962 8.64896 22.128 8.97953 22.1066 9.45114C22.1016 9.55668 22.0732 9.75878 22.0563 9.86128C22.0551 9.86874 22.0558 9.87606 22.0548 9.88352C22.0542 9.88338 22.0535 9.88324 22.0529 9.88297C21.0855 14.5006 19.0537 18.8253 16.8999 22.9905C19.2552 19.144 21.4971 15.1424 22.8415 10.8146C23.4068 11.0724 24.6822 11.9654 23.9597 14.6161C23.9577 14.6237 23.9571 14.6314 23.9553 14.639C23.0528 17.9821 21.7699 21.2251 20.3243 24.3677C21.9389 21.602 23.4213 18.7371 24.608 15.7583C25.3892 16.6185 25.5191 18.0377 25.5271 18.1366C25.589 19.5209 25.1935 22.7224 21.8717 28.6637C20.9019 30.3979 21.6444 31.7627 22.3626 33.0827C22.8597 33.9965 23.4233 35.0322 23.6122 36.4105C23.9405 38.8072 22.6636 42.8738 20.5068 46.2998L21.8089 47.1196C24.1784 43.3557 25.5159 38.9683 25.1367 36.2016C24.9096 34.5445 24.2468 33.3263 23.7143 32.3475C22.9827 31.0028 22.6817 30.3681 23.2149 29.4149C24.991 26.2379 25.9724 23.7666 26.5003 21.8973C27.028 23.7652 28.0096 26.237 29.7864 29.415C30.3193 30.3682 30.0184 31.0028 29.2868 32.3476C28.7543 33.3263 28.0917 34.5446 27.8646 36.2017C27.4852 38.968 28.8226 43.3557 31.1924 47.1199L32.4945 46.3001C30.3374 42.8738 29.0604 38.8072 29.3891 36.4107C29.5779 35.0325 30.1414 33.9967 30.6385 33.0829C31.3566 31.763 32.0991 30.3983 31.1295 28.6642C27.8078 22.7231 27.4123 19.5214 27.4742 18.137C27.4822 18.0381 27.612 16.6188 28.3932 15.7588C29.58 18.7375 31.0622 21.6025 32.6769 24.3681C31.2313 21.2255 29.9484 17.9825 29.0459 14.6394C29.0441 14.6318 29.0436 14.6241 29.0415 14.6165C28.317 11.9594 29.6006 11.0682 30.1592 10.8143C31.5039 15.1422 33.7457 19.1439 36.1009 22.9911C33.947 18.826 31.1284 11.3912 30.8944 9.45252C30.8376 8.98285 31.0048 8.64951 31.2975 8.44203C31.7178 8.14392 32.4489 8.11215 33.0758 8.36453C33.3501 8.4749 33.5501 8.67217 33.5983 8.72245C33.9289 13.7991 38.6235 19.0319 41.3846 22.8053C38.8475 18.6313 34.9599 13.3753 34.9694 8.24379C34.9692 8.24379 34.9691 8.24366 34.969 8.24366C34.9948 7.92234 35.1836 7.64219 35.47 7.50847C35.9177 7.29892 36.5454 7.46123 37.1923 7.95246C38.019 8.58003 39.3502 10.4828 40.3222 11.872C40.4442 12.0465 40.5634 12.2167 40.6786 12.3805C41.5393 13.6036 42.3432 14.9122 43.1205 16.1777C43.4582 16.7274 43.8073 17.2958 44.1581 17.8524C44.3946 18.2277 44.629 18.6047 44.888 19.0216L45.2016 19.526C45.2152 19.5478 45.231 19.5676 45.2465 19.5876C44.5176 23.5094 44.49 27.6611 44.9989 31.6055C42.7769 31.4666 40.5835 33.4243 39.2758 35.0052C40.8243 33.3614 43.1215 31.6656 45.5023 32.1441C45.2159 27.8665 45.4725 23.4366 46.6085 19.2856C46.9756 18.0698 47.4262 17.2994 47.9486 16.9972C48.1068 16.9057 48.649 16.6231 48.9944 16.8249C49.1502 16.916 49.657 17.3649 49.6349 19.3155C49.6348 19.325 49.6349 19.3347 49.635 19.3442C49.7588 24.0987 51.042 32.496 51.3788 34.4842C51.5341 35.404 51.4701 36.252 51.1829 37.0771C50.686 38.5077 48.733 41.8261 45.9587 45.954L47.2357 46.8123C48.9319 44.2885 51.8891 39.7334 52.6363 37.5824C53.0098 36.5066 53.0949 35.4094 52.8952 34.2273Z" fill="#24BB77"/>
</g>
<defs>
<clipPath id="clip0_11_2">
<rect width="53" height="53" fill="white"/>
</clipPath>
</defs>
</svg>
