<svg width="64" height="64" viewBox="0 0 64 64" fill="none" xmlns="http://www.w3.org/2000/svg">
<path d="M10.5173 44.736C10.5173 44.1813 10.7093 43.7333 11.1147 43.4133C11.4133 43.072 11.8613 42.9227 12.4587 42.9227H51.584C52.1173 42.9227 52.5653 43.0933 52.9493 43.4347C53.3333 43.776 53.504 44.224 53.504 44.736C53.504 45.248 53.312 45.696 52.928 46.0587C52.544 46.4213 52.096 46.6347 51.584 46.6347H12.4587C11.9253 46.6347 11.4773 46.4427 11.0933 46.0587C10.7093 45.696 10.5173 45.248 10.5173 44.736ZM14.72 27.0507C14.72 26.496 14.8907 26.048 15.2107 25.7067C15.5733 25.3227 16.0213 25.152 16.5973 25.152C17.088 25.152 17.5147 25.344 17.8773 25.7067L21.0773 28.9067C21.4613 29.2907 21.6533 29.7387 21.6533 30.2507C21.6533 30.7413 21.4613 31.1893 21.0773 31.5733C20.7573 31.9573 20.3307 32.1493 19.7973 32.1493C19.264 32.1493 18.7947 31.9573 18.432 31.5733L15.232 28.3733C14.8907 28.0533 14.72 27.6267 14.72 27.0507ZM20.9707 38.976C20.8853 39.3173 20.992 39.4667 21.2907 39.4667H24.4693C24.6187 39.4667 24.768 39.3387 24.9387 39.104C25.5787 37.7387 26.5173 36.672 27.776 35.8613C29.0347 35.0507 30.4213 34.6667 31.9573 34.6667C33.5147 34.6667 34.9227 35.072 36.2027 35.8613C37.4827 36.6507 38.4427 37.7387 39.0827 39.104C39.2533 39.3387 39.424 39.4667 39.5733 39.4667H42.7307C43.008 39.4667 43.1147 39.296 43.0507 38.976C42.3253 36.5653 40.9387 34.6027 38.8907 33.088C36.8427 31.5733 34.5387 30.8267 31.9573 30.8267C29.3973 30.8267 27.0933 31.5733 25.0667 33.088C23.0827 34.6027 21.696 36.5653 20.9707 38.976ZM30.1653 25.1947V20.6507C30.1653 20.1173 30.336 19.6693 30.6773 19.2853C31.0187 18.9013 31.4667 18.7307 31.9787 18.7307C32.512 18.7307 32.96 18.9227 33.3227 19.2853C33.6853 19.648 33.856 20.1173 33.856 20.6507V25.216C33.856 25.7707 33.6853 26.2187 33.3227 26.5813C32.96 26.944 32.512 27.1147 31.9787 27.1147C31.4667 27.1147 31.0187 26.9227 30.6773 26.56C30.336 26.1973 30.1653 25.728 30.1653 25.1947ZM42.368 30.2507C42.368 29.7387 42.5387 29.2907 42.9013 28.9067L46.1867 25.7067C46.528 25.3227 46.9547 25.152 47.5093 25.152C48.0213 25.152 48.448 25.3227 48.7893 25.6853C49.1307 26.048 49.28 26.496 49.28 27.0507C49.28 27.6053 49.1093 28.0533 48.7893 28.3733L45.632 31.5733C45.2693 31.936 44.864 32.128 44.4373 32.1707C43.9467 32.2133 43.4987 32.0427 43.0507 31.6587C42.6027 31.2747 42.368 30.784 42.368 30.2507Z" fill="#24BB77"/>
</svg>
