<svg width="178" height="147" viewBox="0 0 178 147" fill="none" xmlns="http://www.w3.org/2000/svg">
<path d="M79.0622 112.351L81.1251 98.7363H95.6039L93.0887 109.216C92.7892 110.464 93.735 111.664 95.0182 111.664C96.5991 111.664 97.5452 113.422 96.674 114.742L80.608 139.07L85.807 119.574C86.3149 117.669 84.8794 115.801 82.9083 115.801H82.0283C80.1924 115.801 78.7872 114.166 79.0622 112.351Z" fill="url(#paint0_linear_61_617)"/>
<g filter="url(#filter0_bdi_61_617)">
<path fill-rule="evenodd" clip-rule="evenodd" d="M55.7871 98.7306C55.615 98.7344 55.4425 98.7363 55.2696 98.7363C42.4181 98.7363 32 88.3181 32 75.4667C32 66.7452 36.7981 59.1443 43.8987 55.1598C43.8953 54.9483 43.8935 54.7364 43.8935 54.5241C43.8935 33.2478 61.1413 16 82.4176 16C100.77 16 116.125 28.8333 119.999 46.0155C134.042 46.6053 145.245 58.1763 145.245 72.3641C145.245 86.5825 133.993 98.1728 119.908 98.7163V98.7363H55.7871V98.7306Z" fill="url(#paint1_radial_61_617)" fill-opacity="0.77"/>
</g>
<g style="mix-blend-mode:soft-light" filter="url(#filter1_di_61_617)">
<circle cx="55.2696" cy="75.4667" r="23.2696" fill="#848484"/>
</g>
<mask id="mask0_61_617" style="mask-type:alpha" maskUnits="userSpaceOnUse" x="32" y="16" width="114" height="83">
<path fill-rule="evenodd" clip-rule="evenodd" d="M55.7871 98.7306C55.615 98.7344 55.4425 98.7363 55.2696 98.7363C42.4181 98.7363 32 88.3181 32 75.4667C32 66.7452 36.7981 59.1443 43.8987 55.1598C43.8953 54.9483 43.8935 54.7364 43.8935 54.5241C43.8935 33.2478 61.1413 16 82.4176 16C100.77 16 116.125 28.8333 119.999 46.0155C134.042 46.6053 145.245 58.1763 145.245 72.3641C145.245 85.8792 135.079 97.0198 121.976 98.5556V98.7363H55.7871V98.7306Z" fill="url(#paint2_radial_61_617)" fill-opacity="0.77"/>
</mask>
<g mask="url(#mask0_61_617)">
<g filter="url(#filter2_f_61_617)">
<path d="M87.3304 79.0863C73.65 89.159 61.2241 96.1534 53.2017 98.7362H124.045C115.431 98.7362 97.2528 85.0589 87.3304 79.0863Z" fill="url(#paint3_radial_61_617)"/>
</g>
<g style="mix-blend-mode:screen" filter="url(#filter3_f_61_617)">
<path d="M90.4332 70.2956C81.7895 75.246 69.647 98.501 64.5781 99.7704H116.288C110.846 99.7704 96.7026 73.2309 90.4332 70.2956Z" fill="url(#paint4_linear_61_617)"/>
</g>
<g style="mix-blend-mode:screen" filter="url(#filter4_f_61_617)">
<path d="M88.3642 76.5008C82.563 79.8113 74.1846 98.9215 70.7827 99.7704L105.429 98.7362C101.776 98.7362 92.5718 78.4638 88.3642 76.5008Z" fill="url(#paint5_linear_61_617)"/>
</g>
</g>
<path d="M64.6134 104.378C65.0965 103.92 65.8945 104.211 65.9706 104.872L66.59 110.253C66.8889 112.849 64.3513 114.852 61.8957 113.958C59.44 113.064 58.7833 109.898 60.6808 108.102L64.6134 104.378Z" fill="url(#paint6_linear_61_617)"/>
<path d="M73.0246 120.647C73.4638 120.231 74.1892 120.495 74.2584 121.096L74.8216 125.988C75.0933 128.348 72.7864 130.169 70.5539 129.357C68.3215 128.544 67.7245 125.666 69.4495 124.032L73.0246 120.647Z" fill="url(#paint7_linear_61_617)"/>
<defs>
<filter id="filter0_bdi_61_617" x="0" y="0" width="177.245" height="146.736" filterUnits="userSpaceOnUse" color-interpolation-filters="sRGB">
<feFlood flood-opacity="0" result="BackgroundImageFix"/>
<feGaussianBlur in="BackgroundImageFix" stdDeviation="8"/>
<feComposite in2="SourceAlpha" operator="in" result="effect1_backgroundBlur_61_617"/>
<feColorMatrix in="SourceAlpha" type="matrix" values="0 0 0 0 0 0 0 0 0 0 0 0 0 0 0 0 0 0 127 0" result="hardAlpha"/>
<feOffset dy="16"/>
<feGaussianBlur stdDeviation="16"/>
<feColorMatrix type="matrix" values="0 0 0 0 0 0 0 0 0 0.2015 0 0 0 0 0.3875 0 0 0 0.2 0"/>
<feBlend mode="normal" in2="effect1_backgroundBlur_61_617" result="effect2_dropShadow_61_617"/>
<feBlend mode="normal" in="SourceGraphic" in2="effect2_dropShadow_61_617" result="shape"/>
<feColorMatrix in="SourceAlpha" type="matrix" values="0 0 0 0 0 0 0 0 0 0 0 0 0 0 0 0 0 0 127 0" result="hardAlpha"/>
<feOffset dx="1" dy="2"/>
<feGaussianBlur stdDeviation="7"/>
<feComposite in2="hardAlpha" operator="arithmetic" k2="-1" k3="1"/>
<feColorMatrix type="matrix" values="0 0 0 0 1 0 0 0 0 1 0 0 0 0 1 0 0 0 1 0"/>
<feBlend mode="normal" in2="shape" result="effect3_innerShadow_61_617"/>
</filter>
<filter id="filter1_di_61_617" x="24" y="36.1971" width="76.5391" height="74.5391" filterUnits="userSpaceOnUse" color-interpolation-filters="sRGB">
<feFlood flood-opacity="0" result="BackgroundImageFix"/>
<feColorMatrix in="SourceAlpha" type="matrix" values="0 0 0 0 0 0 0 0 0 0 0 0 0 0 0 0 0 0 127 0" result="hardAlpha"/>
<feOffset dx="-2" dy="-10"/>
<feGaussianBlur stdDeviation="3"/>
<feColorMatrix type="matrix" values="0 0 0 0 0 0 0 0 0 0 0 0 0 0 0 0 0 0 0.22 0"/>
<feBlend mode="normal" in2="BackgroundImageFix" result="effect1_dropShadow_61_617"/>
<feBlend mode="normal" in="SourceGraphic" in2="effect1_dropShadow_61_617" result="shape"/>
<feColorMatrix in="SourceAlpha" type="matrix" values="0 0 0 0 0 0 0 0 0 0 0 0 0 0 0 0 0 0 127 0" result="hardAlpha"/>
<feOffset dx="22" dy="12"/>
<feGaussianBlur stdDeviation="11"/>
<feComposite in2="hardAlpha" operator="arithmetic" k2="-1" k3="1"/>
<feColorMatrix type="matrix" values="0 0 0 0 1 0 0 0 0 1 0 0 0 0 1 0 0 0 0.74 0"/>
<feBlend mode="normal" in2="shape" result="effect2_innerShadow_61_617"/>
</filter>
<filter id="filter2_f_61_617" x="45.2017" y="71.0863" width="86.8428" height="35.6498" filterUnits="userSpaceOnUse" color-interpolation-filters="sRGB">
<feFlood flood-opacity="0" result="BackgroundImageFix"/>
<feBlend mode="normal" in="SourceGraphic" in2="BackgroundImageFix" result="shape"/>
<feGaussianBlur stdDeviation="4" result="effect1_foregroundBlur_61_617"/>
</filter>
<filter id="filter3_f_61_617" x="60.5781" y="66.2956" width="59.71" height="37.4748" filterUnits="userSpaceOnUse" color-interpolation-filters="sRGB">
<feFlood flood-opacity="0" result="BackgroundImageFix"/>
<feBlend mode="normal" in="SourceGraphic" in2="BackgroundImageFix" result="shape"/>
<feGaussianBlur stdDeviation="2" result="effect1_foregroundBlur_61_617"/>
</filter>
<filter id="filter4_f_61_617" x="66.7827" y="72.5008" width="42.646" height="31.2696" filterUnits="userSpaceOnUse" color-interpolation-filters="sRGB">
<feFlood flood-opacity="0" result="BackgroundImageFix"/>
<feBlend mode="normal" in="SourceGraphic" in2="BackgroundImageFix" result="shape"/>
<feGaussianBlur stdDeviation="2" result="effect1_foregroundBlur_61_617"/>
</filter>
<linearGradient id="paint0_linear_61_617" x1="89.9504" y1="98.7363" x2="89.9504" y2="125.626" gradientUnits="userSpaceOnUse">
<stop stop-color="#E2BC38"/>
<stop offset="1" stop-color="#FFE244"/>
</linearGradient>
<radialGradient id="paint1_radial_61_617" cx="0" cy="0" r="1" gradientUnits="userSpaceOnUse" gradientTransform="translate(71.9017 33.6406) rotate(90.6693) scale(65.0662 74.2489)">
<stop stop-color="white"/>
<stop offset="1" stop-color="#99CEFF"/>
</radialGradient>
<radialGradient id="paint2_radial_61_617" cx="0" cy="0" r="1" gradientUnits="userSpaceOnUse" gradientTransform="translate(71.9018 33.6406) rotate(90.6693) scale(65.0662 74.249)">
<stop stop-color="white"/>
<stop offset="1" stop-color="#99CEFF"/>
</radialGradient>
<radialGradient id="paint3_radial_61_617" cx="0" cy="0" r="1" gradientUnits="userSpaceOnUse" gradientTransform="translate(93.9952 96.557) rotate(-90) scale(11.138 57.54)">
<stop stop-color="#FFDE41"/>
<stop offset="1" stop-color="#FFD200" stop-opacity="0"/>
</radialGradient>
<linearGradient id="paint4_linear_61_617" x1="91.8232" y1="99.1952" x2="91.8232" y2="95.3968" gradientUnits="userSpaceOnUse">
<stop stop-color="#FFDE41"/>
<stop offset="1" stop-color="#FFD200" stop-opacity="0"/>
</linearGradient>
<linearGradient id="paint5_linear_61_617" x1="89.068" y1="99.3693" x2="89.068" y2="94.1222" gradientUnits="userSpaceOnUse">
<stop stop-color="#FFDE41"/>
<stop offset="1" stop-color="#FFD200" stop-opacity="0"/>
</linearGradient>
<linearGradient id="paint6_linear_61_617" x1="65.7859" y1="103.268" x2="61.8943" y2="113.958" gradientUnits="userSpaceOnUse">
<stop stop-color="#00D0E2"/>
<stop offset="1" stop-color="#00A3FF"/>
</linearGradient>
<linearGradient id="paint7_linear_61_617" x1="74.0905" y1="119.638" x2="70.5527" y2="129.356" gradientUnits="userSpaceOnUse">
<stop stop-color="#00D0E2"/>
<stop offset="1" stop-color="#00A3FF"/>
</linearGradient>
</defs>
</svg>
