<svg width="64" height="64" viewBox="0 0 64 64" fill="none" xmlns="http://www.w3.org/2000/svg">
<path d="M16.64 31.7013C16.64 29.6107 17.0453 27.6053 17.8773 25.6853C18.688 23.7653 19.7973 22.1227 21.184 20.736C22.5707 19.3493 24.2347 18.24 26.1333 17.408C28.032 16.576 30.0587 16.1707 32.1707 16.1707H34.6667C35.008 16.256 35.1787 16.4693 35.1787 16.768L35.264 18.688C35.3493 21.4613 36.352 23.8293 38.272 25.792C40.192 27.7547 42.5387 28.8 45.2693 28.9067L47.0827 29.056C47.424 29.056 47.5733 29.2267 47.5733 29.5467V31.7013C47.5947 33.8987 47.168 35.968 46.336 37.9307H41.9627C43.0507 36.352 43.7333 34.5387 44.032 32.5333C40.4693 31.7867 37.5893 30.2507 35.4347 27.9253C33.28 25.6 32.0427 22.8693 31.7013 19.7547C29.632 19.8613 27.7547 20.5013 26.0267 21.6747C24.32 22.848 22.976 24.32 22.0373 26.112C21.0987 27.904 20.6293 29.7813 20.6293 31.7227C20.6293 34.0053 21.2267 36.0747 22.4 37.952H17.92C17.0667 35.9467 16.64 33.8773 16.64 31.7013ZM17.2587 44.5227C17.2587 43.904 17.4507 43.4133 17.856 43.072C18.24 42.688 18.7307 42.5173 19.328 42.5173H24.9387L31.5733 36.2667C31.7867 36.096 32.0427 36.096 32.32 36.2667L39.0613 42.496H44.9707C45.5467 42.496 46.0373 42.688 46.4427 43.0933C46.848 43.4773 47.0613 43.968 47.0613 44.5227C47.0613 45.0987 46.848 45.5893 46.4427 45.9947C46.0373 46.4 45.5467 46.6133 44.9707 46.6133H37.76C37.5467 46.6133 37.3333 46.5707 37.1413 46.464L32 41.6213L26.9013 46.464C26.7307 46.5707 26.5387 46.6133 26.304 46.6133H19.328C18.752 46.6133 18.2613 46.4 17.856 45.9947C17.4507 45.5893 17.2587 45.0987 17.2587 44.5227Z" fill="#24BB77"/>
</svg>
