<svg width="64" height="64" viewBox="0 0 64 64" fill="none" xmlns="http://www.w3.org/2000/svg">
<path d="M6.14398 33.0027C6.14398 32.4053 6.35732 31.936 6.78398 31.552C7.14665 31.168 7.63731 30.9973 8.23465 30.9973H13.1626C13.7386 30.9973 14.208 31.1893 14.592 31.5733C14.9546 31.9573 15.1466 32.4267 15.1466 33.0027C15.1466 33.6 14.9546 34.112 14.5706 34.5173C14.1866 34.9227 13.7173 35.136 13.1626 35.136H8.25598C7.67998 35.136 7.18932 34.9227 6.78398 34.496C6.35732 34.0693 6.14398 33.5787 6.14398 33.0027ZM13.1626 16.2347C13.1626 15.6373 13.3333 15.1467 13.696 14.784C14.1226 14.3573 14.6133 14.144 15.1893 14.144C15.808 14.144 16.2773 14.3573 16.64 14.784L20.096 18.2613C21.0773 19.2 21.0773 20.16 20.096 21.1413C19.6906 21.5467 19.2427 21.7387 18.7093 21.7387C18.24 21.7387 17.7706 21.5467 17.2586 21.1413L13.7173 17.6853C13.3546 17.3013 13.1626 16.8107 13.1626 16.2347ZM17.3653 44.5653C17.3653 44.0107 17.5786 43.52 18.0053 43.0933C18.3893 42.7093 18.88 42.5173 19.456 42.5173H26.3253C26.56 42.5173 26.752 42.56 26.9226 42.688L31.936 47.424L37.0347 42.6667C37.184 42.56 37.3973 42.496 37.6533 42.496H44.6933C45.2693 42.496 45.76 42.688 46.1653 43.0933C46.5706 43.4987 46.784 43.9893 46.784 44.544C46.784 45.12 46.5706 45.6107 46.1653 46.016C45.76 46.4213 45.2693 46.6347 44.6933 46.6347H38.976L32.2773 52.6933C32.0213 52.8853 31.7866 52.8853 31.5733 52.6933L25.0026 46.6347H19.456C18.88 46.6347 18.3893 46.4213 17.984 46.016C17.5786 45.632 17.3653 45.1413 17.3653 44.5653ZM19.3706 33.0027C19.3706 35.1147 19.776 36.992 20.608 38.592C20.736 38.8267 20.928 38.9333 21.184 38.9333H25.1733C25.344 38.9333 25.4506 38.8907 25.4933 38.784C25.536 38.6773 25.472 38.5493 25.344 38.4C24.0853 36.8213 23.4453 35.008 23.4453 33.0027C23.4453 30.656 24.2773 28.6507 25.9627 27.008C27.648 25.3653 29.6747 24.5333 32.0427 24.5333C34.3893 24.5333 36.3947 25.3653 38.08 27.008C39.744 28.672 40.5973 30.656 40.5973 32.9813C40.5973 34.9867 39.9573 36.8 38.6987 38.3787C38.5493 38.528 38.5066 38.656 38.5493 38.7627C38.592 38.8693 38.6987 38.912 38.8693 38.912H42.88C43.1573 38.912 43.328 38.8053 43.392 38.5707C44.2666 36.9067 44.7146 35.0293 44.7146 32.9813C44.7146 31.296 44.3733 29.6533 43.712 28.096C43.0507 26.5387 42.1333 25.1733 41.0027 24.0427C39.872 22.912 38.528 22.016 36.9706 21.3333C35.4133 20.6507 33.7706 20.3307 32.064 20.3307C30.3573 20.3307 28.7146 20.672 27.1573 21.3333C25.6 22.016 24.256 22.912 23.1253 24.0427C21.9946 25.1733 21.0986 26.5173 20.416 28.096C19.7333 29.6747 19.3706 31.3173 19.3706 33.0027ZM29.952 14.208V9.23733C29.952 8.66133 30.1653 8.17067 30.5707 7.76533C30.976 7.36 31.4667 7.14667 32.0427 7.14667C32.6187 7.14667 33.1093 7.36 33.5147 7.76533C33.92 8.17067 34.1333 8.66133 34.1333 9.23733V14.1867C34.1333 14.7627 33.92 15.2533 33.5147 15.6587C33.1093 16.064 32.6187 16.2773 32.0427 16.2773C31.4667 16.2773 30.976 16.064 30.5707 15.6587C30.144 15.2533 29.952 14.784 29.952 14.208ZM43.328 19.712C43.328 19.1147 43.52 18.624 43.8826 18.2827L47.36 14.8053C47.7013 14.3787 48.192 14.1653 48.8106 14.1653C49.3867 14.1653 49.8773 14.3787 50.2613 14.784C50.6453 15.1893 50.8373 15.68 50.8373 16.256C50.8373 16.8533 50.6667 17.344 50.304 17.7067L46.7627 21.184C46.272 21.5893 45.7813 21.7813 45.2906 21.7813C44.736 21.7813 44.2666 21.5893 43.8826 21.184C43.52 20.7787 43.328 20.288 43.328 19.712ZM48.8533 33.0027C48.8533 32.4267 49.0453 31.9573 49.408 31.5733C49.7706 31.1893 50.2613 30.9973 50.8373 30.9973H55.7867C56.3627 30.9973 56.8533 31.1893 57.2586 31.5733C57.664 31.9573 57.8773 32.4267 57.8773 33.0027C57.8773 33.5787 57.664 34.0693 57.2586 34.496C56.8533 34.9227 56.3627 35.136 55.7867 35.136H50.8373C50.2827 35.136 49.8133 34.9227 49.4293 34.5173C49.0453 34.112 48.8533 33.6 48.8533 33.0027Z" fill="#24BB77"/>
</svg>
