<svg width="126" height="110" viewBox="0 0 126 110" fill="none" xmlns="http://www.w3.org/2000/svg">
<path d="M87.0996 18.6705L88.6185 21.6267L91.5747 23.1456L88.6185 24.6645L87.0996 27.6207L85.5807 24.6645L82.6245 23.1456L85.5807 21.6267L87.0996 18.6705Z" fill="#F5D540"/>
<path d="M77.0308 10L77.9801 11.8476L79.8278 12.7969L77.9801 13.7462L77.0308 15.5939L76.0815 13.7462L74.2339 12.7969L76.0815 11.8476L77.0308 10Z" fill="#F5D540"/>
<g filter="url(#filter0_bdi_61_580)">
<path fill-rule="evenodd" clip-rule="evenodd" d="M78.9887 61.1839C86.8666 61.1837 93.2527 54.7974 93.2527 46.9195C93.2527 39.2456 87.1929 32.987 79.5975 32.6679C77.5023 23.3743 69.1969 16.433 59.2702 16.433C47.7622 16.433 38.4331 25.7621 38.4331 37.2701C38.4331 37.385 38.434 37.4996 38.4358 37.614C34.5952 39.7692 32 43.8804 32 48.5977C32 55.5489 37.635 61.1839 44.5862 61.1839C44.6798 61.1839 44.7731 61.1829 44.8661 61.1809V61.1839H78.9887Z" fill="url(#paint0_radial_61_580)" fill-opacity="0.77"/>
</g>
<g style="mix-blend-mode:soft-light" filter="url(#filter1_di_61_580)">
<circle cx="44.5862" cy="48.5977" r="12.5862" fill="#848484"/>
</g>
<path d="M57.4892 68.326L58.5713 61.1839H66.4027L65.0423 66.8525C64.8803 67.5274 65.3919 68.1762 66.0859 68.1762C66.941 68.1762 67.4528 69.1274 66.9815 69.841L58.2916 83L61.039 72.6974C61.3464 71.5447 60.4775 70.4138 59.2845 70.4138C58.1733 70.4138 57.3227 69.4246 57.4892 68.326Z" fill="url(#paint1_linear_61_580)"/>
<mask id="mask0_61_580" style="mask-type:alpha" maskUnits="userSpaceOnUse" x="32" y="16" width="62" height="46">
<path fill-rule="evenodd" clip-rule="evenodd" d="M44.8661 61.1809C44.7731 61.1829 44.6798 61.1839 44.5862 61.1839C37.635 61.1839 32 55.5489 32 48.5977C32 43.8804 34.5952 39.7692 38.4358 37.614C38.434 37.4996 38.4331 37.385 38.4331 37.2701C38.4331 25.7621 47.7622 16.433 59.2702 16.433C69.1969 16.433 77.5023 23.3743 79.5975 32.6679C87.1929 32.987 93.2527 39.2456 93.2527 46.9195C93.2527 54.7975 86.8664 61.1839 78.9884 61.1839C78.612 61.1839 78.239 61.1693 77.8699 61.1407V61.1839H44.8661V61.1809Z" fill="url(#paint2_radial_61_580)" fill-opacity="0.77"/>
</mask>
<g mask="url(#mask0_61_580)">
<g filter="url(#filter2_f_61_580)">
<path d="M61.9275 50.5555C54.528 56.0037 47.807 59.7869 43.4678 61.1839H81.7858C77.1268 61.1839 67.2945 53.786 61.9275 50.5555Z" fill="url(#paint3_radial_61_580)"/>
</g>
<g style="mix-blend-mode:screen" filter="url(#filter3_f_61_580)">
<path d="M63.6058 45.8008C58.9305 48.4784 52.3628 61.0567 49.6211 61.7433H77.5904C74.6467 61.7433 66.9968 47.3884 63.6058 45.8008Z" fill="url(#paint4_linear_61_580)"/>
</g>
<g style="mix-blend-mode:screen" filter="url(#filter4_f_61_580)">
<path d="M62.2068 49.1571C59.0691 50.9477 54.5373 61.2841 52.6973 61.7433L71.4367 61.1839C69.4611 61.1839 64.4827 50.2188 62.2068 49.1571Z" fill="url(#paint5_linear_61_580)"/>
</g>
</g>
<defs>
<filter id="filter0_bdi_61_580" x="0" y="0.432953" width="125.253" height="108.751" filterUnits="userSpaceOnUse" color-interpolation-filters="sRGB">
<feFlood flood-opacity="0" result="BackgroundImageFix"/>
<feGaussianBlur in="BackgroundImageFix" stdDeviation="8"/>
<feComposite in2="SourceAlpha" operator="in" result="effect1_backgroundBlur_61_580"/>
<feColorMatrix in="SourceAlpha" type="matrix" values="0 0 0 0 0 0 0 0 0 0 0 0 0 0 0 0 0 0 127 0" result="hardAlpha"/>
<feOffset dy="16"/>
<feGaussianBlur stdDeviation="16"/>
<feColorMatrix type="matrix" values="0 0 0 0 0 0 0 0 0 0.2015 0 0 0 0 0.3875 0 0 0 0.2 0"/>
<feBlend mode="normal" in2="effect1_backgroundBlur_61_580" result="effect2_dropShadow_61_580"/>
<feBlend mode="normal" in="SourceGraphic" in2="effect2_dropShadow_61_580" result="shape"/>
<feColorMatrix in="SourceAlpha" type="matrix" values="0 0 0 0 0 0 0 0 0 0 0 0 0 0 0 0 0 0 127 0" result="hardAlpha"/>
<feOffset dx="1" dy="2"/>
<feGaussianBlur stdDeviation="7"/>
<feComposite in2="hardAlpha" operator="arithmetic" k2="-1" k3="1"/>
<feColorMatrix type="matrix" values="0 0 0 0 1 0 0 0 0 1 0 0 0 0 1 0 0 0 1 0"/>
<feBlend mode="normal" in2="shape" result="effect3_innerShadow_61_580"/>
</filter>
<filter id="filter1_di_61_580" x="24" y="20.0115" width="55.1724" height="53.1724" filterUnits="userSpaceOnUse" color-interpolation-filters="sRGB">
<feFlood flood-opacity="0" result="BackgroundImageFix"/>
<feColorMatrix in="SourceAlpha" type="matrix" values="0 0 0 0 0 0 0 0 0 0 0 0 0 0 0 0 0 0 127 0" result="hardAlpha"/>
<feOffset dx="-2" dy="-10"/>
<feGaussianBlur stdDeviation="3"/>
<feColorMatrix type="matrix" values="0 0 0 0 0 0 0 0 0 0 0 0 0 0 0 0 0 0 0.22 0"/>
<feBlend mode="normal" in2="BackgroundImageFix" result="effect1_dropShadow_61_580"/>
<feBlend mode="normal" in="SourceGraphic" in2="effect1_dropShadow_61_580" result="shape"/>
<feColorMatrix in="SourceAlpha" type="matrix" values="0 0 0 0 0 0 0 0 0 0 0 0 0 0 0 0 0 0 127 0" result="hardAlpha"/>
<feOffset dx="22" dy="12"/>
<feGaussianBlur stdDeviation="11"/>
<feComposite in2="hardAlpha" operator="arithmetic" k2="-1" k3="1"/>
<feColorMatrix type="matrix" values="0 0 0 0 1 0 0 0 0 1 0 0 0 0 1 0 0 0 0.74 0"/>
<feBlend mode="normal" in2="shape" result="effect2_innerShadow_61_580"/>
</filter>
<filter id="filter2_f_61_580" x="35.4678" y="42.5555" width="54.3179" height="26.6284" filterUnits="userSpaceOnUse" color-interpolation-filters="sRGB">
<feFlood flood-opacity="0" result="BackgroundImageFix"/>
<feBlend mode="normal" in="SourceGraphic" in2="BackgroundImageFix" result="shape"/>
<feGaussianBlur stdDeviation="4" result="effect1_foregroundBlur_61_580"/>
</filter>
<filter id="filter3_f_61_580" x="45.6211" y="41.8008" width="35.9692" height="23.9425" filterUnits="userSpaceOnUse" color-interpolation-filters="sRGB">
<feFlood flood-opacity="0" result="BackgroundImageFix"/>
<feBlend mode="normal" in="SourceGraphic" in2="BackgroundImageFix" result="shape"/>
<feGaussianBlur stdDeviation="2" result="effect1_foregroundBlur_61_580"/>
</filter>
<filter id="filter4_f_61_580" x="48.6973" y="45.1571" width="26.7393" height="20.5862" filterUnits="userSpaceOnUse" color-interpolation-filters="sRGB">
<feFlood flood-opacity="0" result="BackgroundImageFix"/>
<feBlend mode="normal" in="SourceGraphic" in2="BackgroundImageFix" result="shape"/>
<feGaussianBlur stdDeviation="2" result="effect1_foregroundBlur_61_580"/>
</filter>
<radialGradient id="paint0_radial_61_580" cx="0" cy="0" r="1" gradientUnits="userSpaceOnUse" gradientTransform="translate(53.5823 25.9745) rotate(90.6693) scale(35.1934 40.1603)">
<stop stop-color="white"/>
<stop offset="1" stop-color="#99CEFF"/>
</radialGradient>
<linearGradient id="paint1_linear_61_580" x1="63.3448" y1="61.1839" x2="63.3448" y2="75.728" gradientUnits="userSpaceOnUse">
<stop stop-color="#E2BC38"/>
<stop offset="1" stop-color="#FFE244"/>
</linearGradient>
<radialGradient id="paint2_radial_61_580" cx="0" cy="0" r="1" gradientUnits="userSpaceOnUse" gradientTransform="translate(53.5823 25.9745) rotate(90.6693) scale(35.1934 40.1603)">
<stop stop-color="white"/>
<stop offset="1" stop-color="#99CEFF"/>
</radialGradient>
<radialGradient id="paint3_radial_61_580" cx="0" cy="0" r="1" gradientUnits="userSpaceOnUse" gradientTransform="translate(65.5325 60.0052) rotate(-90) scale(6.02441 31.1226)">
<stop stop-color="#FFDE41"/>
<stop offset="1" stop-color="#FFD200" stop-opacity="0"/>
</radialGradient>
<linearGradient id="paint4_linear_61_580" x1="64.3576" y1="61.4322" x2="64.3576" y2="59.3776" gradientUnits="userSpaceOnUse">
<stop stop-color="#FFDE41"/>
<stop offset="1" stop-color="#FFD200" stop-opacity="0"/>
</linearGradient>
<linearGradient id="paint5_linear_61_580" x1="62.5875" y1="61.5263" x2="62.5875" y2="58.6883" gradientUnits="userSpaceOnUse">
<stop stop-color="#FFDE41"/>
<stop offset="1" stop-color="#FFD200" stop-opacity="0"/>
</linearGradient>
</defs>
</svg>
