<svg width="111" height="105" viewBox="0 0 111 105" fill="none" xmlns="http://www.w3.org/2000/svg">
<g filter="url(#filter0_i_61_544)">
<circle cx="64.9888" cy="29.5061" r="15.3384" fill="#FFAB0B"/>
</g>
<circle cx="64.8837" cy="29.4011" r="21.1166" stroke="#FFE200" stroke-width="16" stroke-linecap="round" stroke-dasharray="1 70"/>
<g filter="url(#filter1_bdi_61_544)">
<path fill-rule="evenodd" clip-rule="evenodd" d="M41.6655 56.6087C41.5955 56.6102 41.5255 56.611 41.4552 56.611C36.2332 56.611 32 52.3778 32 47.1558C32 43.612 33.9496 40.5235 36.8348 38.9045C36.8334 38.8185 36.8327 38.7324 36.8327 38.6462C36.8327 30.0009 43.8411 22.9926 52.4863 22.9926C59.9435 22.9926 66.1828 28.2071 67.7568 35.1888C73.4627 35.4285 78.015 40.1302 78.015 45.8951C78.015 51.743 73.3307 56.4968 67.5096 56.6089V56.611H41.6655V56.6087Z" fill="url(#paint0_radial_61_544)" fill-opacity="0.77"/>
</g>
<g style="mix-blend-mode:soft-light" filter="url(#filter2_di_61_544)">
<circle cx="41.4552" cy="47.1558" r="9.45518" fill="#848484"/>
</g>
<path d="M51.1478 61.9764L51.9607 56.6111H57.844L56.8219 60.8695C56.7003 61.3765 57.0845 61.8639 57.606 61.8639C58.2483 61.8639 58.6328 62.5785 58.2788 63.1145L51.7506 73L53.8145 65.2604C54.0454 64.3944 53.3927 63.5449 52.4965 63.5449C51.6617 63.5449 51.0227 62.8018 51.1478 61.9764Z" fill="url(#paint1_linear_61_544)"/>
<mask id="mask0_61_544" style="mask-type:alpha" maskUnits="userSpaceOnUse" x="32" y="22" width="47" height="35">
<path fill-rule="evenodd" clip-rule="evenodd" d="M41.6655 56.6088C41.5955 56.6103 41.5255 56.6111 41.4552 56.6111C36.2332 56.6111 32 52.3778 32 47.1559C32 43.612 33.9496 40.5236 36.8348 38.9045C36.8334 38.8186 36.8327 38.7325 36.8327 38.6462C36.8327 30.001 43.8411 22.9926 52.4863 22.9926C59.9435 22.9926 66.1829 28.2072 67.7568 35.1889C73.4627 35.4286 78.015 40.1303 78.015 45.8952C78.015 51.8134 73.2174 56.611 67.2992 56.611C67.0164 56.611 66.7363 56.6001 66.459 56.5786V56.611H41.6655V56.6088Z" fill="url(#paint2_radial_61_544)" fill-opacity="0.77"/>
</mask>
<g mask="url(#mask0_61_544)">
<g filter="url(#filter3_f_61_544)">
<path d="M54.4823 48.6266C48.9236 52.7195 43.8745 55.5616 40.6147 56.611H69.4005C65.9006 56.611 58.5142 51.0535 54.4823 48.6266Z" fill="url(#paint3_radial_61_544)"/>
</g>
<g style="mix-blend-mode:screen" filter="url(#filter4_f_61_544)">
<path d="M55.7431 45.0547C52.2308 47.0662 47.2969 56.5155 45.2373 57.0312H66.2488C64.0374 57.0312 58.2905 46.2474 55.7431 45.0547Z" fill="url(#paint4_linear_61_544)"/>
</g>
<g style="mix-blend-mode:screen" filter="url(#filter5_f_61_544)">
<path d="M54.9022 47.5761C52.545 48.9213 49.1406 56.6863 47.7583 57.0313L61.836 56.611C60.3519 56.611 56.6119 48.3737 54.9022 47.5761Z" fill="url(#paint5_linear_61_544)"/>
</g>
</g>
<defs>
<filter id="filter0_i_61_544" x="39.6504" y="14.1677" width="40.6768" height="43.6768" filterUnits="userSpaceOnUse" color-interpolation-filters="sRGB">
<feFlood flood-opacity="0" result="BackgroundImageFix"/>
<feBlend mode="normal" in="SourceGraphic" in2="BackgroundImageFix" result="shape"/>
<feColorMatrix in="SourceAlpha" type="matrix" values="0 0 0 0 0 0 0 0 0 0 0 0 0 0 0 0 0 0 127 0" result="hardAlpha"/>
<feOffset dx="-10" dy="13"/>
<feGaussianBlur stdDeviation="12"/>
<feComposite in2="hardAlpha" operator="arithmetic" k2="-1" k3="1"/>
<feColorMatrix type="matrix" values="0 0 0 0 1 0 0 0 0 0.886275 0 0 0 0 0 0 0 0 0.9 0"/>
<feBlend mode="normal" in2="shape" result="effect1_innerShadow_61_544"/>
</filter>
<filter id="filter1_bdi_61_544" x="0" y="6.99258" width="110.015" height="97.6184" filterUnits="userSpaceOnUse" color-interpolation-filters="sRGB">
<feFlood flood-opacity="0" result="BackgroundImageFix"/>
<feGaussianBlur in="BackgroundImageFix" stdDeviation="8"/>
<feComposite in2="SourceAlpha" operator="in" result="effect1_backgroundBlur_61_544"/>
<feColorMatrix in="SourceAlpha" type="matrix" values="0 0 0 0 0 0 0 0 0 0 0 0 0 0 0 0 0 0 127 0" result="hardAlpha"/>
<feOffset dy="16"/>
<feGaussianBlur stdDeviation="16"/>
<feColorMatrix type="matrix" values="0 0 0 0 0 0 0 0 0 0.2015 0 0 0 0 0.3875 0 0 0 0.2 0"/>
<feBlend mode="normal" in2="effect1_backgroundBlur_61_544" result="effect2_dropShadow_61_544"/>
<feBlend mode="normal" in="SourceGraphic" in2="effect2_dropShadow_61_544" result="shape"/>
<feColorMatrix in="SourceAlpha" type="matrix" values="0 0 0 0 0 0 0 0 0 0 0 0 0 0 0 0 0 0 127 0" result="hardAlpha"/>
<feOffset dx="1" dy="2"/>
<feGaussianBlur stdDeviation="7"/>
<feComposite in2="hardAlpha" operator="arithmetic" k2="-1" k3="1"/>
<feColorMatrix type="matrix" values="0 0 0 0 1 0 0 0 0 1 0 0 0 0 1 0 0 0 1 0"/>
<feBlend mode="normal" in2="shape" result="effect3_innerShadow_61_544"/>
</filter>
<filter id="filter2_di_61_544" x="24" y="21.7007" width="48.9102" height="46.9104" filterUnits="userSpaceOnUse" color-interpolation-filters="sRGB">
<feFlood flood-opacity="0" result="BackgroundImageFix"/>
<feColorMatrix in="SourceAlpha" type="matrix" values="0 0 0 0 0 0 0 0 0 0 0 0 0 0 0 0 0 0 127 0" result="hardAlpha"/>
<feOffset dx="-2" dy="-10"/>
<feGaussianBlur stdDeviation="3"/>
<feColorMatrix type="matrix" values="0 0 0 0 0 0 0 0 0 0 0 0 0 0 0 0 0 0 0.22 0"/>
<feBlend mode="normal" in2="BackgroundImageFix" result="effect1_dropShadow_61_544"/>
<feBlend mode="normal" in="SourceGraphic" in2="effect1_dropShadow_61_544" result="shape"/>
<feColorMatrix in="SourceAlpha" type="matrix" values="0 0 0 0 0 0 0 0 0 0 0 0 0 0 0 0 0 0 127 0" result="hardAlpha"/>
<feOffset dx="22" dy="12"/>
<feGaussianBlur stdDeviation="11"/>
<feComposite in2="hardAlpha" operator="arithmetic" k2="-1" k3="1"/>
<feColorMatrix type="matrix" values="0 0 0 0 1 0 0 0 0 1 0 0 0 0 1 0 0 0 0.74 0"/>
<feBlend mode="normal" in2="shape" result="effect2_innerShadow_61_544"/>
</filter>
<filter id="filter3_f_61_544" x="32.6147" y="40.6266" width="44.7856" height="23.9844" filterUnits="userSpaceOnUse" color-interpolation-filters="sRGB">
<feFlood flood-opacity="0" result="BackgroundImageFix"/>
<feBlend mode="normal" in="SourceGraphic" in2="BackgroundImageFix" result="shape"/>
<feGaussianBlur stdDeviation="4" result="effect1_foregroundBlur_61_544"/>
</filter>
<filter id="filter4_f_61_544" x="41.2373" y="41.0547" width="29.0117" height="19.9766" filterUnits="userSpaceOnUse" color-interpolation-filters="sRGB">
<feFlood flood-opacity="0" result="BackgroundImageFix"/>
<feBlend mode="normal" in="SourceGraphic" in2="BackgroundImageFix" result="shape"/>
<feGaussianBlur stdDeviation="2" result="effect1_foregroundBlur_61_544"/>
</filter>
<filter id="filter5_f_61_544" x="43.7583" y="43.5761" width="22.0776" height="17.4552" filterUnits="userSpaceOnUse" color-interpolation-filters="sRGB">
<feFlood flood-opacity="0" result="BackgroundImageFix"/>
<feBlend mode="normal" in="SourceGraphic" in2="BackgroundImageFix" result="shape"/>
<feGaussianBlur stdDeviation="2" result="effect1_foregroundBlur_61_544"/>
</filter>
<radialGradient id="paint0_radial_61_544" cx="0" cy="0" r="1" gradientUnits="userSpaceOnUse" gradientTransform="translate(48.2134 30.1605) rotate(90.6693) scale(26.4385 30.1697)">
<stop stop-color="white"/>
<stop offset="1" stop-color="#99CEFF"/>
</radialGradient>
<linearGradient id="paint1_linear_61_544" x1="55.5467" y1="56.6111" x2="55.5467" y2="67.537" gradientUnits="userSpaceOnUse">
<stop stop-color="#E2BC38"/>
<stop offset="1" stop-color="#FFE244"/>
</linearGradient>
<radialGradient id="paint2_radial_61_544" cx="0" cy="0" r="1" gradientUnits="userSpaceOnUse" gradientTransform="translate(48.2134 30.1606) rotate(90.6693) scale(26.4385 30.1697)">
<stop stop-color="white"/>
<stop offset="1" stop-color="#99CEFF"/>
</radialGradient>
<radialGradient id="paint3_radial_61_544" cx="0" cy="0" r="1" gradientUnits="userSpaceOnUse" gradientTransform="translate(57.1905 55.7256) rotate(-90) scale(4.52574 23.3804)">
<stop stop-color="#FFDE41"/>
<stop offset="1" stop-color="#FFD200" stop-opacity="0"/>
</radialGradient>
<linearGradient id="paint4_linear_61_544" x1="56.3079" y1="56.7975" x2="56.3079" y2="55.2541" gradientUnits="userSpaceOnUse">
<stop stop-color="#FFDE41"/>
<stop offset="1" stop-color="#FFD200" stop-opacity="0"/>
</linearGradient>
<linearGradient id="paint5_linear_61_544" x1="55.1882" y1="56.8683" x2="55.1882" y2="54.7362" gradientUnits="userSpaceOnUse">
<stop stop-color="#FFDE41"/>
<stop offset="1" stop-color="#FFD200" stop-opacity="0"/>
</linearGradient>
</defs>
</svg>
