<svg width="141" height="120" viewBox="0 0 141 120" fill="none" xmlns="http://www.w3.org/2000/svg">
<g filter="url(#filter0_bdi_61_497)">
<path fill-rule="evenodd" clip-rule="evenodd" d="M47.9998 71.6484C47.8842 71.6509 47.7683 71.6522 47.6522 71.6522C39.0077 71.6522 32 64.6445 32 56C32 50.1335 35.2274 45.0208 40.0036 42.3407C40.0013 42.1984 40.0001 42.0559 40.0001 41.9131C40.0001 27.6017 51.6018 16 65.9132 16C78.2579 16 88.5866 24.6322 91.1921 36.1898C100.638 36.5867 108.174 44.3698 108.174 53.9131C108.174 63.7101 100.232 71.6522 90.4345 71.6522C90.3183 71.6522 90.2024 71.6511 90.0867 71.6489V71.6522H47.9998V71.6484Z" fill="url(#paint0_radial_61_497)" fill-opacity="0.77"/>
</g>
<g style="mix-blend-mode:soft-light" filter="url(#filter1_di_61_497)">
<circle cx="47.6522" cy="56" r="15.6522" fill="#848484"/>
</g>
<line x1="71.8159" y1="57.2065" x2="71.8159" y2="85.75" stroke="white" stroke-width="4.5" stroke-linecap="round"/>
<path d="M66.4355 58.0869L70.2616 61.913L73.7399 58.0869" stroke="white" stroke-width="4.5" stroke-linecap="round"/>
<path d="M73.7397 86.6087L69.9137 82.7826L66.4354 86.6087" stroke="white" stroke-width="4.5" stroke-linecap="round"/>
<path d="M68.5229 64L70.2621 65.7391L72.0012 64" stroke="white" stroke-width="4.5" stroke-linecap="round"/>
<path d="M71.6533 81.0435L69.9142 79.3043L68.1751 81.0435" stroke="white" stroke-width="4.5" stroke-linecap="round"/>
<line x1="84.3589" y1="73.2065" x2="55.8154" y2="73.2065" stroke="white" stroke-width="4.5" stroke-linecap="round"/>
<path d="M83.4785 67.8261L79.6524 71.6522L83.4785 75.1305" stroke="white" stroke-width="4.5" stroke-linecap="round"/>
<path d="M54.957 75.1305L58.7831 71.3044L54.957 67.8261" stroke="white" stroke-width="4.5" stroke-linecap="round"/>
<path d="M77.5654 69.9131L75.8263 71.6522L77.5654 73.3913" stroke="white" stroke-width="4.5" stroke-linecap="round"/>
<path d="M60.522 73.0435L62.2611 71.3044L60.522 69.5652" stroke="white" stroke-width="4.5" stroke-linecap="round"/>
<line x1="81.3916" y1="62.3124" x2="61.2083" y2="82.4957" stroke="white" stroke-width="4.5" stroke-linecap="round"/>
<path d="M76.8701 59.4782V64.8891L82.0351 64.6432" stroke="white" stroke-width="4.5" stroke-linecap="round"/>
<path d="M61.9136 84.5217L61.9136 79.1108L56.7486 79.3567" stroke="white" stroke-width="4.5" stroke-linecap="round"/>
<path d="M74.4351 64.6956V67.1551H76.8946" stroke="white" stroke-width="4.5" stroke-linecap="round"/>
<path d="M64.6958 79.3043L64.6958 76.8448L62.2363 76.8448" stroke="white" stroke-width="4.5" stroke-linecap="round"/>
<line x1="79.2531" y1="82.7826" x2="59.0698" y2="62.5993" stroke="white" stroke-width="4.5" stroke-linecap="round"/>
<path d="M82.0874 78.2609H76.6765L76.9224 83.4259" stroke="white" stroke-width="4.5" stroke-linecap="round"/>
<path d="M57.0439 63.3043L62.4549 63.3043L62.2089 58.1394" stroke="white" stroke-width="4.5" stroke-linecap="round"/>
<path d="M76.8701 75.8261H74.4106V78.2856" stroke="white" stroke-width="4.5" stroke-linecap="round"/>
<path d="M62.2612 66.0869L64.7207 66.0869L64.7207 63.6274" stroke="white" stroke-width="4.5" stroke-linecap="round"/>
<defs>
<filter id="filter0_bdi_61_497" x="0" y="0" width="140.174" height="119.652" filterUnits="userSpaceOnUse" color-interpolation-filters="sRGB">
<feFlood flood-opacity="0" result="BackgroundImageFix"/>
<feGaussianBlur in="BackgroundImageFix" stdDeviation="8"/>
<feComposite in2="SourceAlpha" operator="in" result="effect1_backgroundBlur_61_497"/>
<feColorMatrix in="SourceAlpha" type="matrix" values="0 0 0 0 0 0 0 0 0 0 0 0 0 0 0 0 0 0 127 0" result="hardAlpha"/>
<feOffset dy="16"/>
<feGaussianBlur stdDeviation="16"/>
<feColorMatrix type="matrix" values="0 0 0 0 0 0 0 0 0 0.2015 0 0 0 0 0.3875 0 0 0 0.2 0"/>
<feBlend mode="normal" in2="effect1_backgroundBlur_61_497" result="effect2_dropShadow_61_497"/>
<feBlend mode="normal" in="SourceGraphic" in2="effect2_dropShadow_61_497" result="shape"/>
<feColorMatrix in="SourceAlpha" type="matrix" values="0 0 0 0 0 0 0 0 0 0 0 0 0 0 0 0 0 0 127 0" result="hardAlpha"/>
<feOffset dx="1" dy="2"/>
<feGaussianBlur stdDeviation="7"/>
<feComposite in2="hardAlpha" operator="arithmetic" k2="-1" k3="1"/>
<feColorMatrix type="matrix" values="0 0 0 0 1 0 0 0 0 1 0 0 0 0 1 0 0 0 1 0"/>
<feBlend mode="normal" in2="shape" result="effect3_innerShadow_61_497"/>
</filter>
<filter id="filter1_di_61_497" x="24" y="24.3478" width="61.3042" height="59.3044" filterUnits="userSpaceOnUse" color-interpolation-filters="sRGB">
<feFlood flood-opacity="0" result="BackgroundImageFix"/>
<feColorMatrix in="SourceAlpha" type="matrix" values="0 0 0 0 0 0 0 0 0 0 0 0 0 0 0 0 0 0 127 0" result="hardAlpha"/>
<feOffset dx="-2" dy="-10"/>
<feGaussianBlur stdDeviation="3"/>
<feColorMatrix type="matrix" values="0 0 0 0 0 0 0 0 0 0 0 0 0 0 0 0 0 0 0.22 0"/>
<feBlend mode="normal" in2="BackgroundImageFix" result="effect1_dropShadow_61_497"/>
<feBlend mode="normal" in="SourceGraphic" in2="effect1_dropShadow_61_497" result="shape"/>
<feColorMatrix in="SourceAlpha" type="matrix" values="0 0 0 0 0 0 0 0 0 0 0 0 0 0 0 0 0 0 127 0" result="hardAlpha"/>
<feOffset dx="22" dy="12"/>
<feGaussianBlur stdDeviation="11"/>
<feComposite in2="hardAlpha" operator="arithmetic" k2="-1" k3="1"/>
<feColorMatrix type="matrix" values="0 0 0 0 1 0 0 0 0 1 0 0 0 0 1 0 0 0 0.74 0"/>
<feBlend mode="normal" in2="shape" result="effect2_innerShadow_61_497"/>
</filter>
<radialGradient id="paint0_radial_61_497" cx="0" cy="0" r="1" gradientUnits="userSpaceOnUse" gradientTransform="translate(58.8397 27.8659) rotate(90.6693) scale(43.7665 49.9431)">
<stop stop-color="white"/>
<stop offset="1" stop-color="#99CEFF"/>
</radialGradient>
</defs>
</svg>
