<svg width="64" height="64" viewBox="0 0 64 64" fill="none" xmlns="http://www.w3.org/2000/svg">
<path d="M5.86667 32.768C5.86667 32.2347 6.08 31.744 6.50667 31.296C6.976 30.8907 7.488 30.6773 8 30.6773H12.9707C13.5467 30.6773 14.016 30.8907 14.4 31.296C14.784 31.7013 14.976 32.2133 14.976 32.768C14.976 33.3867 14.784 33.8987 14.4 34.304C14.016 34.7093 13.5253 34.9227 12.9707 34.9227H8C7.424 34.9227 6.93334 34.7093 6.50667 34.2827C6.08 33.8347 5.86667 33.3227 5.86667 32.768ZM12.9707 15.744C12.9707 15.168 13.1627 14.6773 13.5253 14.2933C14.016 13.8667 14.5067 13.6533 15.04 13.6533C15.5947 13.6533 16.0853 13.8667 16.4907 14.272L19.9893 17.792C20.3947 18.2613 20.5867 18.752 20.5867 19.264C20.5867 19.8613 20.3947 20.3733 20.0107 20.7573C19.6267 21.1413 19.1573 21.3547 18.6027 21.3547C18.0907 21.3547 17.5787 21.1413 17.1093 20.736L13.5253 17.3013C13.1627 16.8533 12.9707 16.32 12.9707 15.744ZM17.2373 44.544C17.2373 43.9467 17.4507 43.456 17.856 43.0933C18.24 42.7307 18.7093 42.5387 19.3067 42.5387H24.9173L31.552 36.3093C31.7653 36.1387 32 36.1387 32.2773 36.3093L39.0187 42.5387H44.928C45.504 42.5387 45.9947 42.7307 46.4 43.136C46.8053 43.52 47.0187 44.0107 47.0187 44.5653C47.0187 45.1413 46.8053 45.632 46.4 46.0373C45.9947 46.4427 45.504 46.656 44.928 46.656H37.7173C37.504 46.656 37.2907 46.6133 37.0987 46.5067L31.9573 41.664L26.8587 46.5067C26.688 46.6133 26.496 46.656 26.2613 46.656H19.3067C18.7307 46.656 18.24 46.4427 17.8347 46.0373C17.4293 45.6107 17.2373 45.12 17.2373 44.544ZM19.2 32.768C19.2 34.8373 19.648 36.7147 20.5227 38.4C20.5653 38.656 20.7573 38.784 21.056 38.784H25.0667C25.216 38.784 25.3227 38.72 25.3867 38.6133C25.4507 38.4853 25.4293 38.3573 25.344 38.208C23.9787 36.5653 23.296 34.752 23.296 32.768C23.296 30.3787 24.1493 28.3307 25.856 26.6453C27.5627 24.96 29.6107 24.128 32.0213 24.128C34.4107 24.128 36.4373 24.96 38.1227 26.6453C39.808 28.3307 40.6613 30.3573 40.6613 32.768C40.6613 34.7733 39.9787 36.5867 38.6347 38.208C38.5493 38.3573 38.528 38.4853 38.5707 38.6133C38.6133 38.7413 38.72 38.784 38.8907 38.784H42.944C43.2213 38.784 43.392 38.656 43.4347 38.4C44.3733 36.7573 44.8 34.88 44.8 32.768C44.8 31.04 44.4587 29.376 43.776 27.8187C43.0933 26.24 42.176 24.896 41.0453 23.744C39.9147 22.6133 38.5493 21.696 36.9707 21.0133C35.392 20.3307 33.7493 20.0107 32.0213 20.0107C30.2933 20.0107 28.6293 20.352 27.0507 21.0133C25.472 21.696 24.1067 22.592 22.9547 23.744C21.8027 24.8747 20.8853 26.24 20.2027 27.8187C19.5413 29.376 19.2 31.0187 19.2 32.768ZM29.9307 13.6533V8.74667C29.9307 8.12801 30.1227 7.63734 30.528 7.23201C30.9333 6.82667 31.4453 6.63467 32.0427 6.63467C32.64 6.63467 33.1307 6.82667 33.536 7.23201C33.9413 7.63734 34.1333 8.17067 34.1333 8.76801V13.6747C34.1333 14.2933 33.9413 14.784 33.536 15.1893C33.152 15.5733 32.64 15.7867 32.0427 15.7867C31.424 15.7867 30.9333 15.5947 30.528 15.1893C30.1227 14.784 29.9307 14.272 29.9307 13.6533ZM43.4773 19.2853C43.4773 18.752 43.6693 18.2613 44.0533 17.8133L47.5093 14.2933C47.9147 13.888 48.4267 13.6747 49.0027 13.6747C49.5787 13.6747 50.0907 13.888 50.4747 14.2933C50.88 14.6987 51.072 15.1893 51.072 15.7653C51.072 16.384 50.88 16.896 50.5173 17.3227L46.9333 20.7573C46.4853 21.1627 45.9733 21.376 45.44 21.376C44.864 21.376 44.3947 21.184 44.032 20.7787C43.6693 20.3733 43.4773 19.8827 43.4773 19.2853ZM49.0453 32.768C49.0453 32.192 49.2373 31.7013 49.6213 31.296C50.0053 30.8907 50.4747 30.6773 51.0293 30.6773H56.0427C56.6187 30.6773 57.1093 30.8907 57.5147 31.296C57.92 31.7013 58.1333 32.2133 58.1333 32.768C58.1333 33.3653 57.92 33.856 57.5147 34.2827C57.1093 34.7093 56.6187 34.9227 56.0427 34.9227H51.0293C50.4533 34.9227 49.984 34.7093 49.6 34.304C49.2373 33.8773 49.0453 33.3653 49.0453 32.768Z" fill="#24BB77"/>
</svg>
