<svg width="64" height="64" viewBox="0 0 64 64" fill="none" xmlns="http://www.w3.org/2000/svg">
<path d="M9.32266 31.1893C9.32266 30.6773 9.49333 30.2293 9.856 29.8667C10.2187 29.5253 10.6667 29.3547 11.136 29.3547H15.488C15.9787 29.3547 16.384 29.5253 16.7253 29.888C17.0453 30.2507 17.216 30.6773 17.216 31.1893C17.216 31.7013 17.0667 32.128 16.7467 32.4907C16.4267 32.8533 16 33.024 15.5093 33.024H11.1573C10.6667 33.024 10.24 32.8533 9.87733 32.4907C9.51466 32.128 9.32266 31.7013 9.32266 31.1893ZM15.424 45.9733C15.424 45.4827 15.5947 45.056 15.9147 44.672L19.0507 41.6213C19.3707 41.28 19.7973 41.1307 20.3093 41.1307C20.8213 41.1307 21.248 41.3013 21.5893 41.6213C21.9307 41.9413 22.1013 42.3467 22.1013 42.8373C22.1013 43.3493 21.9307 43.8187 21.5893 44.2027L18.56 47.232C17.6853 47.9147 16.8107 47.9147 15.936 47.232C15.5947 46.8907 15.424 46.464 15.424 45.9733ZM15.424 16.448C15.424 15.9573 15.5947 15.5307 15.9147 15.1467C16.3413 14.784 16.7893 14.6133 17.28 14.6133C17.7493 14.6133 18.176 14.784 18.5387 15.1253L21.5893 18.2613C21.9307 18.5813 22.1013 19.008 22.1013 19.52C22.1013 20.032 21.9307 20.4587 21.5893 20.8C21.248 21.1413 20.8213 21.312 20.3093 21.312C19.7973 21.312 19.3707 21.1413 19.0507 20.8L15.936 17.7493C15.5947 17.408 15.424 16.96 15.424 16.448ZM20.864 31.1893C20.864 29.2053 21.3547 27.3493 22.3573 25.6427C23.36 23.936 24.704 22.5707 26.432 21.568C28.16 20.5653 29.9947 20.0747 31.9787 20.0747C33.472 20.0747 34.9013 20.3733 36.288 20.9707C37.6533 21.568 38.848 22.3573 39.8293 23.36C40.832 24.3627 41.6213 25.536 42.1973 26.9013C42.7733 28.2667 43.072 29.7173 43.072 31.2107C43.072 33.216 42.5813 35.072 41.5787 36.7787C40.576 38.4853 39.232 39.8293 37.5253 40.832C35.8187 41.8347 33.9627 42.3253 31.9573 42.3253C29.952 42.3253 28.096 41.8347 26.3893 40.832C24.6827 39.8293 23.3387 38.4853 22.336 36.7787C21.376 35.0507 20.864 33.1947 20.864 31.1893ZM24.4907 31.1893C24.4907 33.28 25.216 35.0507 26.688 36.5227C28.1387 37.9947 29.9093 38.7413 32 38.7413C34.0907 38.7413 35.8613 37.9947 37.3333 36.5227C38.8053 35.0507 39.552 33.28 39.552 31.1893C39.552 29.1413 38.8053 27.392 37.3333 25.92C35.8613 24.4693 34.0907 23.744 32 23.744C29.9307 23.744 28.16 24.4693 26.7093 25.92C25.216 27.392 24.4907 29.1413 24.4907 31.1893ZM30.1653 47.7867C30.1653 47.2747 30.336 46.848 30.6987 46.5067C31.0613 46.1653 31.488 45.9947 31.9787 45.9947C32.4907 45.9947 32.9387 46.1653 33.28 46.5067C33.6213 46.848 33.792 47.2747 33.792 47.7867V52.032C33.792 52.544 33.6213 52.992 33.2587 53.3547C32.896 53.7173 32.4693 53.888 31.9787 53.888C31.488 53.888 31.04 53.7173 30.6987 53.3547C30.336 52.992 30.1653 52.544 30.1653 52.032V47.7867ZM30.1653 14.72V10.368C30.1653 9.87734 30.336 9.45067 30.6987 9.08801C31.0613 8.72534 31.488 8.53334 32 8.53334C32.512 8.53334 32.9173 8.70401 33.28 9.06667C33.6427 9.42934 33.8133 9.85601 33.8133 10.3467V14.72C33.8133 15.2107 33.6427 15.616 33.28 15.9573C32.9173 16.2987 32.4907 16.448 32 16.448C31.5093 16.448 31.0613 16.2773 30.72 15.9573C30.3787 15.6373 30.1653 15.2107 30.1653 14.72ZM41.9413 42.8373C41.9413 42.3467 42.112 41.9413 42.432 41.6427C42.752 41.3013 43.1573 41.152 43.6267 41.152C44.1387 41.152 44.5653 41.3227 44.9067 41.6427L48.0213 44.6933C48.3627 45.056 48.5333 45.504 48.5333 45.9947C48.5333 46.4853 48.3627 46.912 48.0213 47.2533C47.168 47.9147 46.3147 47.9147 45.4613 47.2533L42.432 44.224C42.112 43.84 41.9413 43.392 41.9413 42.8373ZM41.9413 19.5413C41.9413 19.008 42.112 18.5813 42.432 18.2827L45.4613 15.1467C45.824 14.8053 46.2507 14.6347 46.72 14.6347C47.232 14.6347 47.6587 14.8053 48 15.168C48.3627 15.5307 48.5333 15.9573 48.5333 16.448C48.5333 16.9813 48.3627 17.4293 48.0213 17.7707L44.9067 20.8213C44.5227 21.1627 44.096 21.3333 43.6267 21.3333C43.136 21.3333 42.752 21.1627 42.432 20.8213C42.112 20.48 41.9413 20.0533 41.9413 19.5413ZM46.7627 31.1893C46.7627 30.6773 46.9333 30.2507 47.2747 29.8667C47.616 29.5253 48.0213 29.3547 48.4907 29.3547H52.8C53.2907 29.3547 53.7173 29.5467 54.08 29.9093C54.4427 30.272 54.6347 30.6987 54.6347 31.1893C54.6347 31.68 54.4427 32.1067 54.08 32.4693C53.7173 32.832 53.2907 33.0027 52.8 33.0027H48.4907C48 33.0027 47.5733 32.832 47.2533 32.4693C46.9333 32.1067 46.7627 31.7013 46.7627 31.1893Z" fill="#FFE600"/>
</svg>
